<svg xmlns="http://www.w3.org/2000/svg" xmlns:xlink="http://www.w3.org/1999/xlink" preserveAspectRatio="xMidYMid" width="52" height="52" viewBox="0 0 52 52">
  <defs>
    <style>
      .cls-1 {
        fill: #6996c7;
      }

      .cls-2 {
        fill: #fff;
        fill-rule: evenodd;
      }
    </style>
  </defs>
  <g>
    <circle cx="26" cy="26" r="26" class="cls-1"/>
    <path d="M36.490,26.858 C35.463,25.751 34.096,25.018 32.389,24.659 L32.389,24.511 C33.576,24.016 34.507,23.243 35.181,22.192 C35.855,21.140 36.193,19.940 36.193,18.592 C36.193,17.429 35.948,16.402 35.460,15.512 C34.971,14.621 34.232,13.910 33.242,13.378 C32.327,12.883 31.347,12.559 30.302,12.404 C29.256,12.249 27.719,12.172 25.691,12.172 L15.931,12.172 L15.931,39.800 L26.990,39.800 C28.907,39.800 30.487,39.627 31.730,39.280 C32.973,38.934 34.115,38.353 35.154,37.536 C36.032,36.856 36.731,35.996 37.250,34.957 C37.770,33.918 38.030,32.712 38.030,31.339 C38.030,29.459 37.516,27.965 36.490,26.858 ZM28.827,21.579 C28.616,22.037 28.233,22.396 27.676,22.655 C27.169,22.891 26.677,23.020 26.201,23.045 C25.725,23.070 24.893,23.082 23.705,23.082 L22.833,23.082 L22.833,17.237 L23.316,17.237 C24.552,17.237 25.483,17.247 26.108,17.265 C26.733,17.284 27.274,17.392 27.732,17.590 C28.214,17.800 28.570,18.141 28.799,18.611 C29.027,19.081 29.142,19.538 29.142,19.984 C29.142,20.590 29.037,21.122 28.827,21.579 ZM30.450,33.000 C30.159,33.526 29.699,33.925 29.068,34.196 C28.350,34.506 27.645,34.673 26.952,34.697 C26.260,34.722 25.010,34.735 23.204,34.735 L22.833,34.735 L22.833,27.814 L24.114,27.814 C25.350,27.814 26.337,27.823 27.073,27.841 C27.809,27.860 28.387,27.950 28.808,28.110 C29.501,28.358 30.020,28.723 30.367,29.205 C30.713,29.688 30.886,30.356 30.886,31.209 C30.886,31.877 30.741,32.474 30.450,33.000 Z" class="cls-2"/>
  </g>
</svg>
