<svg xmlns="http://www.w3.org/2000/svg" xmlns:xlink="http://www.w3.org/1999/xlink" preserveAspectRatio="xMidYMid" width="52" height="52" viewBox="0 0 52 52">
  <defs>
    <style>
      .cls-1 {
        fill: #ff9c43;
      }

      .cls-2 {
        fill: #fff;
        fill-rule: evenodd;
      }
    </style>
  </defs>
  <g>
    <circle cx="26" cy="26" r="26" class="cls-1"/>
    <path d="M34.962,29.799 C33.621,30.625 30.794,32.100 27.757,32.556 L33.755,38.390 C34.172,38.772 34.435,39.309 34.435,39.909 C34.435,41.064 33.473,42.000 32.285,42.000 C31.699,42.000 31.168,41.770 30.780,41.400 L30.775,41.405 L25.958,36.720 L21.141,41.405 L21.135,41.400 C20.747,41.770 20.217,42.000 19.630,42.000 C18.443,42.000 17.480,41.064 17.480,39.909 C17.480,39.309 17.744,38.771 18.161,38.390 L24.176,32.540 C21.206,32.072 18.423,30.641 17.078,29.819 C17.077,29.819 17.077,29.818 17.076,29.818 C16.436,29.454 16.000,28.787 16.000,28.014 C16.000,26.858 16.965,25.920 18.156,25.920 C18.548,25.920 18.911,26.030 19.228,26.208 C19.251,26.218 19.266,26.214 19.291,26.230 C20.662,27.073 23.285,28.540 25.992,28.540 C28.634,28.540 31.286,27.093 32.732,26.218 C32.762,26.200 32.782,26.202 32.809,26.190 C33.118,26.023 33.468,25.920 33.847,25.920 C35.037,25.920 36.002,26.858 36.002,28.014 C36.002,28.773 35.583,29.431 34.962,29.799 ZM26.001,26.088 C21.430,26.088 17.725,22.487 17.725,18.045 C17.725,13.603 21.430,10.002 26.001,10.002 C30.572,10.002 34.278,13.603 34.278,18.045 C34.278,22.487 30.572,26.088 26.001,26.088 ZM26.001,13.856 C23.620,13.856 21.690,15.731 21.690,18.045 C21.690,20.358 23.620,22.234 26.001,22.234 C28.382,22.234 30.312,20.358 30.312,18.045 C30.312,15.731 28.382,13.856 26.001,13.856 Z" class="cls-2"/>
  </g>
</svg>
