<svg xmlns="http://www.w3.org/2000/svg" xmlns:xlink="http://www.w3.org/1999/xlink" preserveAspectRatio="xMidYMid" width="52" height="52" viewBox="0 0 52 52">
  <defs>
    <style>
      .cls-1 {
        fill: #28c3ff;
      }

      .cls-2 {
        fill: #fff;
        fill-rule: evenodd;
      }
    </style>
  </defs>
  <g>
    <circle cx="26" cy="26" r="26" class="cls-1"/>
    <path d="M38.400,17.974 L41.000,17.130 L38.814,20.679 C38.734,21.841 38.320,22.909 37.682,23.813 C37.054,26.209 33.342,38.145 21.714,38.000 C12.562,37.885 11.000,36.957 11.000,36.957 C11.000,36.957 21.431,34.863 19.571,32.783 C16.990,32.843 14.345,31.569 13.143,29.652 C14.723,29.616 16.993,29.717 15.286,28.609 C13.578,27.500 10.966,25.707 11.000,23.391 C12.270,23.382 14.214,23.391 14.214,23.391 C14.214,23.391 10.900,21.859 11.000,19.217 C11.100,16.576 12.072,14.000 12.072,14.000 C12.072,14.000 18.199,21.272 22.786,21.304 C24.131,21.314 25.214,21.318 26.109,21.318 C26.049,20.973 26.000,20.623 26.000,20.261 C26.000,16.803 28.878,14.000 32.429,14.000 C33.986,14.000 35.395,14.561 36.507,15.458 L41.000,14.000 L38.227,17.600 C38.287,17.724 38.348,17.846 38.400,17.974 Z" class="cls-2"/>
  </g>
</svg>
